<?xml version="1.0" encoding="UTF-8" standalone="no"?>
<svg width="321px" height="321px" viewBox="0 0 321 321" version="1.1" xmlns="http://www.w3.org/2000/svg" xmlns:xlink="http://www.w3.org/1999/xlink" xmlns:sketch="http://www.bohemiancoding.com/sketch/ns">
    <!-- Generator: Sketch 3.3.1 (12002) - http://www.bohemiancoding.com/sketch -->
    <title>Synrc Neo (7)</title>
    <desc>Created with Sketch.</desc>
    <defs></defs>
    <g id="Page-1" stroke="none" stroke-width="1" fill="none" fill-rule="evenodd" sketch:type="MSPage">
        <g id="Synrc-Neo-(7)" sketch:type="MSLayerGroup" transform="translate(-49.000000, -49.000000)">
            <g id="Canvas" sketch:type="MSShapeGroup">
                <g id="Synrc-Neo">
                    <g id="g">
                        <g>
                            <g id="path">
                                <g id="path0_fill-link" transform="translate(209.500167, 209.500503) rotate(-21.731401) translate(-209.500167, -209.500503) translate(50.000131, 50.000467)" fill="#4990E2">
                                    <path d="M159.500036,319.000072 C247.589056,319.000072 319.000072,247.589056 319.000072,159.500036 C319.000072,71.4106161 247.589056,0 159.500036,0 C71.4106161,0 0,71.4106161 0,159.500036 C0,247.589056 71.4106161,319.000072 159.500036,319.000072 L159.500036,319.000072 Z" id="path0_fill"></path>
                                </g>
                                <g id="path1_stroke-link" transform="translate(209.500167, 209.500503) rotate(-21.731401) translate(-209.500167, -209.500503) translate(49.000131, 49.000467)" fill="#979797">
                                    <path d="M160.500036,320.500072 C248.866056,320.500072 320.500072,248.866056 320.500072,160.500036 L319.500072,160.500036 C319.500072,248.313056 248.313056,319.500072 160.500036,319.500072 L160.500036,320.500072 L160.500036,320.500072 Z M320.500072,160.500036 C320.500072,72.1344162 248.866056,0.500000113 160.500036,0.500000113 L160.500036,1.50000034 C248.313056,1.50000034 319.500072,72.6867164 319.500072,160.500036 L320.500072,160.500036 L320.500072,160.500036 Z M160.500036,0.500000113 C72.1344162,0.500000113 0.500000113,72.1344162 0.500000113,160.500036 L1.50000034,160.500036 C1.50000034,72.6867164 72.6867164,1.50000034 160.500036,1.50000034 L160.500036,0.500000113 L160.500036,0.500000113 Z M0.500000113,160.500036 C0.500000113,248.866056 72.1344162,320.500072 160.500036,320.500072 L160.500036,319.500072 C72.6867164,319.500072 1.50000034,248.313056 1.50000034,160.500036 L0.500000113,160.500036 L0.500000113,160.500036 Z" id="path1_stroke"></path>
                                </g>
                            </g>
                            <g id="path" transform="translate(45.000000, 58.000000)">
                                <g id="path2_fill-link" transform="translate(144.398931, 160.856846) rotate(-21.731401) translate(-144.398931, -160.856846) translate(41.898908, 29.856816)" fill="#FFFFFF">
                                    <path d="M142.637032,115.751026 C162.637037,139.251031 222.44405,161.200036 198.748045,220.65105 C184.453042,256.516058 94.1371212,293.751066 30.1371068,214.251048 C-23.6819053,147.398033 6.75809152,61.8543139 43.6371098,29.7510067 C113.137025,-30.7490069 190.137043,19.7510044 190.137043,19.7510044 C140.637032,17.2510039 104.765024,71.251016 142.637032,115.751026 L142.637032,115.751026 Z" id="path2_fill"></path>
                                </g>
                                <g id="path3_stroke-link" transform="translate(144.213803, 160.392381) rotate(-21.731401) translate(-144.213803, -160.392381) translate(41.713780, 28.892351)" fill="#979797">
                                    <path d="M142.637032,116.751026 L143.018032,116.427026 L142.637032,116.751026 L142.637032,116.751026 Z M198.748045,221.65105 L199.212045,221.83605 L198.748045,221.65105 L198.748045,221.65105 Z M30.1371068,215.251048 L30.5266069,214.937048 L30.1371068,215.251048 L30.1371068,215.251048 Z M43.6371098,30.7510069 L43.9654099,31.128107 L43.6371098,30.7510069 L43.6371098,30.7510069 Z M190.137043,20.7510047 L190.112043,21.2503048 L191.952043,21.3433048 L190.411043,20.3329046 L190.137043,20.7510047 L190.137043,20.7510047 Z M142.256032,117.075026 C147.292033,122.988028 154.818035,128.799029 162.866037,135.08903 C170.914038,141.380032 179.49304,148.157033 186.709042,156.057035 C193.928044,163.953037 199.743045,172.896039 202.304046,183.601041 C204.863046,194.272044 204.175046,206.685047 198.283045,221.46605 L199.212045,221.83605 C205.169046,206.892047 205.891046,194.267044 203.276046,183.368041 C200.662045,172.502039 194.719044,163.342037 187.448042,155.382035 C180.174041,147.425033 171.532039,140.594032 163.482037,134.30103 C155.432035,128.009029 147.982033,122.264028 143.018032,116.427026 L142.256032,117.075026 L142.256032,117.075026 Z M198.283045,221.46605 C191.227043,239.169054 165.280037,257.375058 133.02303,261.216059 C100.824823,265.05106 62.4166141,254.551057 30.5266069,214.937048 L29.7477067,215.565049 C61.8577139,255.451058 100.607223,266.08406 133.14103,262.209059 C165.615037,258.342058 191.973043,239.998054 199.212045,221.83605 L198.283045,221.46605 L198.283045,221.46605 Z M30.5266069,214.937048 C3.71995084,181.639041 -2.10463047,143.689032 3.36887076,110.050025 C8.84500199,76.3951172 25.6245058,47.0939106 43.9654099,31.128107 L43.3088098,30.3739068 C24.7707056,46.5114105 7.89069178,76.0335171 2.38185054,109.889025 C-3.1296407,143.762032 2.73531062,182.010041 29.7477067,215.565049 L30.5266069,214.937048 L30.5266069,214.937048 Z M43.9654099,31.128107 C78.5745177,1.0008023 115.034026,-1.48688033 142.860032,3.5554808 C156.785035,6.07677137 168.524038,10.4784324 176.81204,14.2606032 C180.951041,16.1488036 184.212041,17.875304 186.447042,19.1348043 C187.563042,19.7632045 188.416042,20.2716046 188.995043,20.6252046 C189.283043,20.8013047 189.500043,20.9373047 189.646043,21.0303047 C189.719043,21.0764047 189.773043,21.1111048 189.810043,21.1348048 C189.828043,21.1465048 189.841043,21.1550048 189.850043,21.1609048 C189.855043,21.1638048 189.858043,21.1659048 189.860043,21.1673048 C189.861043,21.1680048 189.862043,21.1684048 189.862043,21.1688048 C189.863043,21.1690048 189.863043,21.1691048 190.137043,20.7510047 C190.411043,20.3329046 190.411043,20.3326046 190.410043,20.3320046 C190.409043,20.3316046 190.408043,20.3309046 190.407043,20.3301046 C190.405043,20.3284046 190.401043,20.3259046 190.396043,20.3227046 C190.386043,20.3164046 190.371043,20.3068046 190.352043,20.2944046 C190.314043,20.2700046 190.257043,20.2332046 190.182043,20.1857045 C190.033043,20.0912045 189.809043,19.9510045 189.516043,19.7720045 C188.933043,19.4154044 188.064042,18.8979043 186.938042,18.2636041 C184.691042,16.9977038 181.393041,15.2516034 177.22704,13.350803 C168.907038,9.55480215 157.051035,5.11272115 143.039032,2.57151058 C114.990026,-2.51112057 78.1997176,0.00120800027 43.3088098,30.3739068 L43.9654099,31.128107 L43.9654099,31.128107 Z M190.162043,20.2516046 C165.222037,18.9920043 143.699032,31.9668072 133.18503,50.8831115 C122.660028,69.8196157 123.188028,94.6701213 142.256032,117.075026 L143.018032,116.427026 C124.214028,94.3319212 123.742028,69.9323158 134.05903,51.3689116 C144.389033,32.7851074 165.553037,20.0100045 190.112043,21.2503048 L190.162043,20.2516046 L190.162043,20.2516046 Z" id="path3_stroke"></path>
                                </g>
                            </g>
                            <g id="path" transform="translate(219.000000, 84.000000)">
                                <g id="path4_fill-link" transform="translate(71.455434, 89.371625) rotate(-21.731401) translate(-71.455434, -89.371625) translate(26.455424, 12.871608)" fill="#FFFFFF">
                                    <path d="M68.9215155,19.0864043 C34.9215079,-22.9137052 -24.5785055,11.0864025 10.9215025,56.5864127 C25.4215057,75.1708169 68.9215155,102.586023 62.9215142,152.586034 C119.405027,73.0535165 68.9215155,19.0864043 68.9215155,19.0864043 L68.9215155,19.0864043 Z" id="path4_fill"></path>
                                </g>
                                <g id="path5_stroke-link" transform="translate(71.270306, 88.907160) rotate(-21.731401) translate(-71.270306, -88.907160) translate(25.270296, 11.907143)" fill="#979797">
                                    <path d="M69.9215157,20.0864045 L69.5329157,20.4010046 L69.5442157,20.4149046 L69.5564157,20.4279046 L69.9215157,20.0864045 L69.9215157,20.0864045 Z M11.9215027,57.586413 L12.3157028,57.2788129 L11.9215027,57.586413 L11.9215027,57.586413 Z M63.9215144,153.586035 L63.4250143,153.527035 L64.3291145,153.876035 L63.9215144,153.586035 L63.9215144,153.586035 Z M70.3102158,19.7718045 C53.169712,-1.40171032 29.5229066,-3.48457078 14.5991033,5.59672126 C7.13815161,10.1367723 1.86798542,17.4677039 0.730032164,26.563406 C-0.407670092,35.657008 2.59282058,46.4427105 11.5273026,57.893913 L12.3157028,57.2788129 C3.50014079,45.9800104 0.625618141,35.453308 1.72229639,26.687506 C2.81872063,17.923804 7.89231178,10.8484524 15.1189034,6.45099145 C29.5701067,-2.34272053 52.6733119,-0.425590096 69.5329157,20.4010046 L70.3102158,19.7718045 L70.3102158,19.7718045 Z M11.5273026,57.893913 C15.1756034,62.5679141 20.6353046,67.7889153 26.655606,73.7507166 C32.6766074,79.713118 39.2635088,86.4208195 45.2136102,94.1115212 C57.1026129,109.476025 66.404115,128.701029 63.4250143,153.527035 L64.4179145,153.646035 C67.4389152,128.472029 57.9904131,108.989025 46.0044104,93.4996211 C40.017009,85.7634193 33.3852075,79.0075178 27.3592062,73.0402164 C21.3327048,67.0722151 15.9173036,61.8971139 12.3157028,57.2788129 L11.5273026,57.893913 L11.5273026,57.893913 Z M64.3291145,153.876035 C92.6532209,113.994026 94.1837212,80.4716181 88.58952,56.8961128 C85.7932193,45.1256102 81.2155183,35.8225081 77.3538174,29.5008066 C75.418117,26.3332059 73.6503166,23.8913054 72.3749163,22.253405 C71.7349162,21.4316048 71.212516,20.8038047 70.854116,20.3862046 C70.6737159,20.1761045 70.5318159,20.0156045 70.4368159,19.9097045 C70.3887159,19.8561045 70.3512158,19.8149045 70.3265158,19.7880045 C70.3139158,19.7742045 70.3040158,19.7634045 70.2976158,19.7565044 C70.2942158,19.7529044 70.2915158,19.7500044 70.2898158,19.7482044 C70.2889158,19.7472044 70.2881158,19.7464044 70.2877158,19.7459044 C70.2871158,19.7452044 70.2867158,19.7448044 69.9215157,20.0864045 C69.5564157,20.4279046 69.5564157,20.4279046 69.5565157,20.4281046 C69.5569157,20.4284046 69.5572157,20.4288046 69.5578157,20.4295046 C69.5592157,20.4310046 69.5611157,20.4330046 69.5638157,20.4359046 C69.5696157,20.4422046 69.5779157,20.4511046 69.5893157,20.4636046 C69.6128157,20.4892046 69.6468157,20.5266046 69.6925157,20.5775046 C69.7851157,20.6807047 69.9197157,20.8330047 70.0953158,21.0375047 C70.4488159,21.4493048 70.955916,22.058705 71.5860161,22.8678052 C72.8507164,24.4919055 74.5858168,26.8875061 76.5004172,30.0221068 C80.3393181,36.3046082 84.8522191,45.4641102 87.6165197,57.1270129 C93.143321,80.4183181 91.6737206,113.646026 63.5138143,153.297035 L64.3291145,153.876035 L64.3291145,153.876035 Z" id="path5_stroke"></path>
                                </g>
                            </g>
                            <g id="ellipse" transform="translate(197.000000, 221.000000)">
                                <g id="path6_fill-link" transform="translate(44.223545, 44.223605) rotate(-21.731401) translate(-44.223545, -44.223605) translate(11.723538, 11.723598)" fill="#4990E2">
                                    <path d="M32.5000073,65.0000146 C50.4493114,65.0000146 65.0000146,50.4493114 65.0000146,32.5000073 C65.0000146,14.5507033 50.4493114,0 32.5000073,0 C14.5507033,0 0,14.5507033 0,32.5000073 C0,50.4493114 14.5507033,65.0000146 32.5000073,65.0000146 L32.5000073,65.0000146 Z" id="path6_fill"></path>
                                </g>
                                <g id="path7_stroke-link" transform="translate(44.223545, 44.223605) rotate(-21.731401) translate(-44.223545, -44.223605) translate(10.723537, 10.723597)" fill="#979797">
                                    <path d="M65.5000148,33.5000075 C65.5000148,51.1731115 51.1731115,65.5000148 33.5000075,65.5000148 L33.5000075,66.500015 C51.7254116,66.500015 66.500015,51.7254116 66.500015,33.5000075 L65.5000148,33.5000075 L65.5000148,33.5000075 Z M33.5000075,65.5000148 C15.8269036,65.5000148 1.50000034,51.1731115 1.50000034,33.5000075 L0.500000113,33.5000075 C0.500000113,51.7254116 15.2746034,66.500015 33.5000075,66.500015 L33.5000075,65.5000148 L33.5000075,65.5000148 Z M1.50000034,33.5000075 C1.50000034,15.8269036 15.8269036,1.50000034 33.5000075,1.50000034 L33.5000075,0.500000113 C15.2746034,0.500000113 0.500000113,15.2746034 0.500000113,33.5000075 L1.50000034,33.5000075 L1.50000034,33.5000075 Z M33.5000075,1.50000034 C51.1731115,1.50000034 65.5000148,15.8269036 65.5000148,33.5000075 L66.500015,33.5000075 C66.500015,15.2746034 51.7254116,0.500000113 33.5000075,0.500000113 L33.5000075,1.50000034 L33.5000075,1.50000034 Z" id="path7_stroke"></path>
                                </g>
                            </g>
                        </g>
                    </g>
                </g>
            </g>
        </g>
    </g>
</svg>